<?xml version="1.0" encoding="UTF-8" standalone="no"?>
<svg
   xmlns:dc="http://purl.org/dc/elements/1.1/"
   xmlns:cc="http://creativecommons.org/ns#"
   xmlns:rdf="http://www.w3.org/1999/02/22-rdf-syntax-ns#"
   xmlns:svg="http://www.w3.org/2000/svg"
   xmlns="http://www.w3.org/2000/svg"
   xmlns:sodipodi="http://sodipodi.sourceforge.net/DTD/sodipodi-0.dtd"
   xmlns:inkscape="http://www.inkscape.org/namespaces/inkscape"
   width="300"
   height="300"
   viewBox="0 0 79.374998 79.375002"
   version="1.1"
   id="svg131686"
   inkscape:version="1.0.2 (e86c8708, 2021-01-15)"
   sodipodi:docname="leafyrabbet_00.svg">
  <defs
     id="defs131680" />
  <sodipodi:namedview
     id="base"
     pagecolor="#ffffff"
     bordercolor="#666666"
     borderopacity="1.0"
     inkscape:pageopacity="0.0"
     inkscape:pageshadow="2"
     inkscape:zoom="1.4460251"
     inkscape:cx="102.22997"
     inkscape:cy="174.60484"
     inkscape:document-units="px"
     inkscape:current-layer="layer1"
     inkscape:document-rotation="0"
     showgrid="false"
     inkscape:window-width="1440"
     inkscape:window-height="847"
     inkscape:window-x="0"
     inkscape:window-y="25"
     inkscape:window-maximized="0"
     units="px"
     inkscape:pagecheckerboard="true" />
  <metadata
     id="metadata131683">
    <rdf:RDF>
      <cc:Work
         rdf:about="">
        <dc:format>image/svg+xml</dc:format>
        <dc:type
           rdf:resource="http://purl.org/dc/dcmitype/StillImage" />
        <dc:title></dc:title>
      </cc:Work>
    </rdf:RDF>
  </metadata>
  <g
     inkscape:label="Layer 1"
     inkscape:groupmode="layer"
     id="layer1">
    <path
       id="path131748"
       style="fill:#6f916f;stroke-width:0.227679;paint-order:stroke fill markers"
       d="M 38.066524,11.820493 A 31.338846,27.100574 0 0 0 6.8067986,38.921292 31.338846,27.100574 0 0 0 21.16944,61.701162 17.465521,15.103482 0 0 0 21.051803,63.45079 17.465521,15.103482 0 0 0 38.517462,78.554388 17.465521,15.103482 0 0 0 55.982644,63.45079 17.465521,15.103482 0 0 0 55.806188,61.308314 31.338846,27.100574 0 0 0 69.484529,38.921292 31.338846,27.100574 0 0 0 38.145425,11.820493 a 31.338846,27.100574 0 0 0 -0.07889,0 z" />
    <path
       id="path131741"
       style="fill:#ffffff;stroke-width:0.215749;paint-order:stroke fill markers"
       d="M 37.605057,12.837911 A 29.753856,25.631335 0 0 0 7.9263202,38.469459 29.753856,25.631335 0 0 0 21.562558,60.014334 16.582188,14.284657 0 0 0 21.450871,61.669106 16.582188,14.284657 0 0 0 38.033188,75.953875 16.582188,14.284657 0 0 0 54.615054,61.669106 16.582188,14.284657 0 0 0 54.447523,59.642784 29.753856,25.631335 0 0 0 67.43407,38.469459 29.753856,25.631335 0 0 0 37.679968,12.837911 a 29.753856,25.631335 0 0 0 -0.07491,0 z" />
    <path
       id="path131706"
       style="fill:#ffaaaa;stroke-width:0.878566;paint-order:stroke fill markers"
       d="m 23.623166,34.953993 c -4.384055,3.9e-5 -8.412737,-0.09877 -10.484036,3.765118 H 9.2178324 v 3.601219 h 2.6827546 c -0.114981,0.666852 -0.17285,1.342299 -0.172979,2.01899 -1.4e-5,6.569741 5.325817,11.895572 11.895558,11.895557 6.569741,1.8e-5 11.895571,-5.325816 11.895557,-11.895557 2.1e-5,-0.676679 -0.0577,-1.352125 -0.172525,-2.01899 h 0.936626 1.746129 0.936625 c -0.114982,0.666853 -0.17285,1.342299 -0.172977,2.01899 -1.6e-5,6.569741 5.325814,11.895572 11.895555,11.895557 6.569741,1.8e-5 11.895573,-5.325816 11.895557,-11.895557 2.4e-5,-0.676679 -0.05769,-1.352125 -0.172525,-2.01899 h 2.682756 v -3.601219 h -3.921751 c -2.071299,-3.863892 -6.099982,-3.765079 -10.484037,-3.765118 -4.384054,3.9e-5 -8.412738,-0.09877 -10.484034,3.765118 H 38.028953 36.282824 34.1072 C 32.035903,34.855219 28.007221,34.954032 23.623166,34.953993 Z" />
    <path
       style="fill:#6f916f;fill-opacity:1;stroke-width:0.865944"
       d="m 35.453112,52.842206 c 0.347976,-1.277358 -0.551818,-11.161579 1.986542,-7.292233 2.538363,3.869346 5.959632,11.905684 3.973088,11.756862 -1.986542,-0.148814 -1.655454,-2.232315 -3.200543,-1.041747 -1.545088,1.190569 -6.664018,4.475345 -4.855993,0.595283 0.532627,-1.14303 1.74893,-2.740807 2.096906,-4.018165 z"
       id="path131750"
       sodipodi:nodetypes="zssssz" />
    <path
       style="fill:#dbe3de;stroke:#6f916f;stroke-width:1.5875;stroke-linecap:round;stroke-linejoin:round;stroke-opacity:1;stroke-miterlimit:4;stroke-dasharray:none"
       d="m 7.885759,28.347358 c 0,0 -0.8037685,-18.8081847 6.269395,-22.1840128 C 21.228318,2.787517 23.96113,9.5391735 32.481077,6.6456064 41.001025,3.7520396 60.136736,-3.7227602 60.130719,9.3784197 60.129137,12.884206 45.662885,5.1988229 44.055347,6.4848528 42.44781,7.7708822 52.575294,7.2886212 56.754891,12.271986 59.287378,15.29149 47.591929,9.217666 43.090824,8.8961585 38.589719,8.5746511 57.829929,5.4361155 54.343584,4.7165619 40.04813,1.7660951 59.186337,7.5264653 52.414541,5.8418378 45.642742,4.1572102 38.107458,4.5558079 48.395696,5.6810836 58.683935,6.8063597 71.544234,17.094598 71.704986,23.203239 71.86574,29.311881 70.901219,52.13891 65.757099,51.978156 61.031498,51.830481 68.72821,27.973426 62.542024,28.025851 43.573086,28.186605 29.909018,11.628971 23.639624,16.612336 c -6.269395,4.983366 0.964522,13.824821 -4.661859,11.252761 -5.62638,-2.572059 -9.1629612,3.215073 -8.841454,4.179598 0.321508,0.964522 0.643015,18.16517 -1.607537,17.522155 C 6.2782219,48.923836 4.5099309,33.973739 5.4744533,31.240925 6.4389756,28.508112 7.885759,28.347358 7.885759,28.347358 Z"
       id="path131752"
       sodipodi:nodetypes="csssssssssssssssssc" />
    <path
       style="fill:#dbe3de;fill-opacity:1;stroke:#6f916f;stroke-width:2.29246;stroke-linecap:round;stroke-linejoin:round;stroke-miterlimit:4;stroke-dasharray:none;paint-order:stroke fill markers"
       id="path131787"
       d="m 45.620023,61.599841 c -1.202653,-0.462593 -2.492874,-0.736385 -3.764019,-0.946653 -1.609158,-0.28067 -3.246306,-0.296709 -4.871045,-0.18527 -1.618228,0.118752 -3.222291,0.359088 -4.800724,0.731989 -1.337413,0.391618 -2.676261,0.781912 -3.970403,1.302071 -0.768748,0.307529 -1.466185,0.768141 -2.154874,1.22227 -0.453205,0.288274 -0.234731,0.150859 -0.655192,0.412665 0,0 5.084976,2.948016 5.084976,2.948016 v 0 c 0.399927,-0.271812 0.18985,-0.131303 0.631098,-0.420082 0.676655,-0.415045 1.351624,-0.836781 2.088636,-1.139359 1.253159,-0.517755 2.543264,-0.932953 3.860708,-1.255848 1.560684,-0.328703 3.136098,-0.585214 4.731778,-0.663622 1.608649,-0.06751 3.223557,0.0013 4.807994,0.308238 1.301346,0.267262 2.602103,0.577296 3.824222,1.109912 0,0 -4.813278,-3.424523 -4.813278,-3.424523 z" />
    <path
       style="fill:#dbe3de;fill-opacity:1;stroke:#6f916f;stroke-width:1.5875;stroke-linecap:round;stroke-linejoin:round;stroke-miterlimit:4;stroke-dasharray:none;paint-order:stroke fill markers"
       id="path131801"
       d="m 38.513962,73.025408 c -0.276564,-0.395825 -0.505579,-0.817769 -0.687403,-1.264593 -0.176439,-0.50357 -0.265199,-1.032507 -0.328893,-1.56065 -0.0516,-0.424247 -0.09808,-0.844264 -0.09882,-1.271954 -0.02324,-0.23649 0.04944,-0.467678 0.05326,-0.701521 -0.02166,-0.09715 0.02776,-0.190411 0.007,-0.285063 -0.03449,-0.04298 -0.0343,-0.112238 -0.04237,-0.165248 0,0 2.323785,-0.587909 2.323785,-0.587909 v 0 c 0.0043,0.0561 0.01143,0.0936 0.04099,0.146025 0.02353,0.121409 0.01428,0.220341 -0.0038,0.336672 -0.0018,0.240531 -0.09163,0.465975 -0.07599,0.709634 -0.01981,0.419043 0.0248,0.829497 0.06983,1.245816 0.05558,0.507762 0.141099,1.015013 0.3083,1.499196 0.180012,0.431529 0.410665,0.840449 0.710196,1.201394 0,0 -2.27611,0.698213 -2.27611,0.698213 z" />
    <circle
       style="fill:#0b280b;fill-opacity:1;stroke:#6f916f;stroke-width:0.232454;paint-order:stroke fill markers"
       id="path131805"
       cx="36.660675"
       cy="21.113443"
       r="0.32150745" />
    <path
       style="fill:#dbe3de;fill-opacity:1;stroke:#6f916f;stroke-width:1.5875;paint-order:stroke fill markers;stroke-miterlimit:4;stroke-dasharray:none;stroke-linecap:round;stroke-linejoin:round"
       id="path131807"
       d="m 41.086516,37.891204 c 1.249047,-0.107006 2.506842,-0.192655 3.693714,-0.406686 1.617411,-0.321618 3.11302,-0.757601 4.658588,-1.144617 1.695089,-0.432867 3.524221,-0.711639 5.409136,-0.900078 1.621889,-0.132349 3.28457,-0.188248 4.931657,-0.16131 0.4724,0.01577 1.067984,0.0084 1.338337,0.223791 -0.02922,0.01694 -0.05846,0.03387 -0.08768,0.05081 0,0 -0.256548,-2.395543 -0.256548,-2.395543 v 0 c -0.054,-0.01377 -0.107986,-0.02759 -0.161979,-0.04138 -0.522005,-0.133704 -1.099296,-0.159661 -1.690585,-0.146559 -1.681201,0.01549 -3.361535,0.110308 -5.026961,0.209478 -1.928732,0.199392 -3.784277,0.499072 -5.54203,0.921403 -1.522072,0.382057 -3.017101,0.793533 -4.61494,1.106096 -1.126205,0.208537 -2.341375,0.30804 -3.551876,0.336959 0,0 0.901193,2.347637 0.901193,2.347637 z" />
    <path
       style="fill:#dbe3de;fill-opacity:1;stroke:#6f916f;stroke-width:1.5875;paint-order:stroke fill markers;stroke-miterlimit:4;stroke-dasharray:none;stroke-linecap:round;stroke-linejoin:round"
       id="path131809"
       d="m 14.907396,37.27233 c 1.249046,-0.107006 2.506842,-0.192655 3.693713,-0.406686 1.617411,-0.321619 3.11302,-0.757601 4.658589,-1.144617 1.695088,-0.432868 3.52422,-0.71164 5.409135,-0.900078 1.621889,-0.132349 3.284571,-0.188248 4.931657,-0.16131 0.4724,0.01577 1.067984,0.0084 1.338337,0.22379 -0.02922,0.01695 -0.05846,0.03387 -0.08768,0.05081 0,0 -0.256548,-2.395543 -0.256548,-2.395543 v 0 c -0.054,-0.01377 -0.107987,-0.02759 -0.16198,-0.04138 -0.522005,-0.133704 -1.099295,-0.159662 -1.690584,-0.146559 -1.681202,0.01549 -3.361536,0.110308 -5.026961,0.209478 -1.928733,0.199392 -3.784277,0.499072 -5.542031,0.921402 -1.522072,0.382058 -3.017101,0.793534 -4.61494,1.106096 -1.126205,0.208538 -2.341375,0.308041 -3.551875,0.336959 0,0 0.901194,2.347638 0.901194,2.347638 z" />
  </g>
</svg>
